<svg xmlns="http://www.w3.org/2000/svg" style="display:none">
  <symbol id="location" viewBox="0 0 24 24"><path fill="currentColor" d="M12 2C8.13 2 5 5.13 5 9c0 5.25 7 13 7 13s7-7.75 7-13c0-3.87-3.13-7-7-7zm0 9.5a2.5 2.5 0 110-5 2.5 2.5 0 010 5z"/></symbol>
  <symbol id="phone" viewBox="0 0 24 24"><path fill="currentColor" d="M6.6 10.8c1.5 2.9 3.7 5.1 6.6 6.6l2.2-2.2c.3-.3.7-.4 1-.2 1.1.4 2.3.6 3.6.6.6 0 1 .4 1 1V20c0 .6-.4 1-1 1-9.4 0-17-7.6-17-17 0-.6.4-1 1-1h3.5c.6 0 1 .4 1 1 0 1.3.2 2.5.6 3.6.1.3 0 .7-.2 1L6.6 10.8z"/></symbol>
  <symbol id="envelope" viewBox="0 0 24 24"><path fill="currentColor" d="M20 4H4c-1.1 0-2 .9-2 2v12c0 1.1.9 2 2 2h16c1.1 0 2-.9 2-2V6c0-1.1-.9-2-2-2zm0 4-8 5L4 8V6l8 5 8-5v2z"/></symbol>
  <symbol id="clock" viewBox="0 0 24 24"><path fill="currentColor" d="M12 2a10 10 0 100 20 10 10 0 000-20zm1 11H7v-2h4V7h2v6z"/></symbol>
  <symbol id="bars" viewBox="0 0 24 24"><path fill="currentColor" d="M3 6h18v2H3V6zm0 5h18v2H3v-2zm0 5h18v2H3v-2z"/></symbol>
  <symbol id="xmark" viewBox="0 0 24 24"><path fill="currentColor" d="M18.3 5.7a1 1 0 00-1.4 0L12 10.6 7.1 5.7A1 1 0 105.7 7.1L10.6 12l-4.9 4.9a1 1 0 101.4 1.4L12 13.4l4.9 4.9a1 1 0 001.4-1.4L13.4 12l4.9-4.9a1 1 0 000-1.4z"/></symbol>
  <symbol id="moon" viewBox="0 0 24 24"><path fill="currentColor" d="M12.1 2a9 9 0 108.7 11.3A7 7 0 0112.1 2z"/></symbol>
  <symbol id="sun" viewBox="0 0 24 24"><path fill="currentColor" d="M12 7a5 5 0 100 10 5 5 0 000-10zm8 4h3v2h-3v-2zM3 11h3v2H3v-2zm15.7 6.3 2.1 2.1-1.4 1.4-2.1-2.1 1.4-1.4zM5.6 5.6 7.7 7.7 6.3 9.1 4.2 7 5.6 5.6zm12.1-1.4 2.1-2.1 1.4 1.4-2.1 2.1-1.4-1.4zM5.6 18.4l1.4 1.4-2.1 2.1-1.4-1.4 2.1-2.1zM12 1h2v3h-2V1zm0 19h2v3h-2v-2z"/></symbol>
  <symbol id="invoice" viewBox="0 0 24 24"><path fill="currentColor" d="M14 2H6a2 2 0 00-2 2v16a2 2 0 002 2h12a2 2 0 002-2V8l-6-6zm1 9h-5v2h5v-2zm0 4h-8v2h8v-2zM9 7V3.5L14.5 9H10a1 1 0 01-1-1z"/></symbol>
  <symbol id="industry" viewBox="0 0 24 24"><path fill="currentColor" d="M22 21H2V9l7 4V9l7 4V3h4v18z"/></symbol>
  <symbol id="certificate" viewBox="0 0 24 24"><path fill="currentColor" d="M12 2l2.4 4.9 5.4.8-3.9 3.8.9 5.4L12 14.8 7.2 16.9l.9-5.4L4.2 7.7l5.4-.8L12 2zm-1 14.5l-3 1.6.6-3.3-2.5-2.4 3.4-.5L11 8.8l1.5 3.1 3.4.5-2.5 2.4.6 3.3-3-1.6z"/></symbol>
  <symbol id="shield" viewBox="0 0 24 24"><path fill="currentColor" d="M12 2 4 5v6c0 5 3.4 9.7 8 11 4.6-1.3 8-6 8-11V5l-8-3zm0 2.2 6 2.25V11c0 3.9-2.6 7.6-6 8.8-3.4-1.2-6-4.9-6-8.8V6.45l6-2.25z"/></symbol>
  <symbol id="truck" viewBox="0 0 24 24"><path fill="currentColor" d="M3 6h11v9H3V6zm12 2h3.7L21 12.2V15h-2a3 3 0 11-6 0H9a3 3 0 11-6 0H1V8h2V6zm2 9a1.5 1.5 0 100-3 1.5 1.5 0 000 3zM6 17a1.5 1.5 0 100-3 1.5 1.5 0 000 3z"/></symbol>
  <symbol id="box" viewBox="0 0 24 24"><path fill="currentColor" d="M21 16V8l-9-5-9 5v8l9 5 9-5zm-9 3-7-3.9V9.1L12 13l7-3.9v5.9L12 19zM12 11 5 7.1 12 3l7 4.1L12 11z"/></symbol>
  <symbol id="tag" viewBox="0 0 24 24"><path fill="currentColor" d="M21.4 12.6 11.4 2.6A2 2 0 009.9 2H4a2 2 0 00-2 2v5.9a2 2 0 00.6 1.5l10 10a2 2 0 002.8 0l6-6a2 2 0 000-2.8zM7 7a1.5 1.5 0 110 3 1.5 1.5 0 010-3z"/></symbol>
  <symbol id="percent" viewBox="0 0 24 24"><path fill="currentColor" d="m18.2 4.8 1 1-13.4 13.4-1-1L18.2 4.8zM7 6a2 2 0 110 4 2 2 0 010-4zm10 8a2 2 0 110 4 2 2 0 010-4z"/></symbol>
  <symbol id="pdf" viewBox="0 0 24 24"><path fill="currentColor" d="M14 2H6a2 2 0 00-2 2v16a2 2 0 002 2h12a2 2 0 002-2V8l-6-6zm-1 2.5L18.5 10H13V4.5zM8 13h2a2 2 0 110 4H9v2H8v-6zm1 3h1a1 1 0 100-2H9v2zm5-3h2v1h-1v1h1v1h-1v1h-1v-4zm3 0h2a1 1 0 110 2h-1v2h-1v-6h2v1z"/></symbol>
  <symbol id="warehouse" viewBox="0 0 24 24"><path fill="currentColor" d="M12 3 2 9v12h20V9L12 3zm0 2.8L18 10v9H6v-9l6-4.2z"/></symbol>
  <symbol id="award" viewBox="0 0 24 24"><path fill="currentColor" d="M12 2 9 9l-7 1 5 5-1 7 6-3 6 3-1-7 5-5-7-1-3-7zm0 4.5 1.8 4.1 4.5.7-3.3 3.2.8 4.5L12 17.8 8.2 19l.8-4.5-3.3-3.2 4.5-.7L12 6.5z"/></symbol>
  <symbol id="search" viewBox="0 0 24 24"><path fill="currentColor" d="M10 2a8 8 0 105.3 14.3l4.4 4.4 1.4-1.4-4.4-4.4A8 8 0 0010 2zm0 2a6 6 0 110 12 6 6 0 010-12z"/></symbol>
  <symbol id="folder" viewBox="0 0 24 24"><path fill="currentColor" d="M10 4H4a2 2 0 00-2 2v12a2 2 0 002 2h16a2 2 0 002-2V8a2 2 0 00-2-2h-8l-2-2z"/></symbol>
  <symbol id="card" viewBox="0 0 24 24"><path fill="currentColor" d="M4 4h16a2 2 0 012 2v12a2 2 0 01-2 2H4a2 2 0 01-2-2V6a2 2 0 012-2zm0 4v2h16V8H4zm0 4v4h10v-4H4z"/></symbol>
  <symbol id="send" viewBox="0 0 24 24"><path fill="currentColor" d="m2 21 21-9L2 3v7l15 2-15 2v7z"/></symbol>
  <symbol id="calc" viewBox="0 0 24 24"><path fill="currentColor" d="M7 2h10a2 2 0 012 2v16a2 2 0 01-2 2H7a2 2 0 01-2-2V4a2 2 0 012-2zm2 4v2h6V6H9zm0 4v2h2v-2H9zm4 0v2h2v-2h-2zm-4 4v2h2v-2H9zm4 0v2h6v-2h-6z"/></symbol>
  <symbol id="linkedin" viewBox="0 0 24 24"><path fill="currentColor" d="M4.98 3.5a2.5 2.5 0 110 5 2.5 2.5 0 010-5zM3 9h4v12H3V9zm7 0h3.8v1.7h.1c.5-1 1.8-2.1 3.7-2.1 4 0 4.7 2.6 4.7 6V21h-4v-5.6c0-1.3 0-3-1.8-3s-2.1 1.4-2.1 2.9V21H10V9z"/></symbol>
  <symbol id="spinner" viewBox="0 0 24 24"><path fill="currentColor" d="M12 4V2A10 10 0 002 12h2a8 8 0 018-8z"/></symbol>
  <symbol id="info" viewBox="0 0 24 24"><path fill="currentColor" d="M12 2a10 10 0 100 20 10 10 0 000-20zm1 15h-2v-6h2v6zm0-8h-2V7h2v2z"/></symbol>
  <symbol id="warn" viewBox="0 0 24 24"><path fill="currentColor" d="M12 2 1 21h22L12 2zm1 15h-2v-2h2v2zm0-4h-2V9h2v4z"/></symbol>
  <symbol id="check" viewBox="0 0 24 24"><path fill="currentColor" d="M9.2 16.2 4.8 11.8l1.4-1.4 3 3 8-8 1.4 1.4-9.4 9.4z"/></symbol>
  <symbol id="trash" viewBox="0 0 24 24"><path fill="currentColor" d="M9 3h6l1 2h4v2H4V5h4l1-2zm1 6h2v9h-2V9zm4 0h2v9h-2V9zM7 9h2v9H7V9z"/></symbol>
  <symbol id="cart" viewBox="0 0 24 24"><path fill="currentColor" d="M7 18a2 2 0 100 4 2 2 0 000-4zm10 0a2 2 0 100 4 2 2 0 000-4zM6 6h15l-1.5 9h-12L6 6zm-1-2a1 1 0 00-1 1l2 12a2 2 0 002 2h12a2 2 0 002-2l2-12H5z"/></symbol>
  <symbol id="comments" viewBox="0 0 24 24"><path fill="currentColor" d="M4 4h16a2 2 0 012 2v9a2 2 0 01-2 2H8l-4 4V6a2 2 0 012-2z"/></symbol>
  <symbol id="building" viewBox="0 0 24 24"><path fill="currentColor" d="M4 22V4h8v18H4zm10 0V8h6v14h-6zM6 6h2v2H6V6zm0 4h2v2H6v-2zm0 4h2v2H6v-2zm10-8h2v2h-2V6zm0 4h2v2h-2v-2z"/></symbol>
  <symbol id="bag" viewBox="0 0 24 24"><path fill="currentColor" d="M7 7V6a5 5 0 1110 0v1h3v15H4V7h3zm2 0h6V6a3 3 0 10-6 0v1z"/></symbol>
</svg>
